<?xml version="1.0" encoding="UTF-8"?>
<!DOCTYPE svg PUBLIC "-//W3C//DTD SVG 1.1//EN" "http://www.w3.org/Graphics/SVG/1.1/DTD/svg11.dtd">
<!-- Creator: CorelDRAW (Evaluation Version) -->
<svg xmlns="http://www.w3.org/2000/svg" xml:space="preserve" width="100px" height="100px" version="1.1" style="shape-rendering:geometricPrecision; text-rendering:geometricPrecision; image-rendering:optimizeQuality; fill-rule:evenodd; clip-rule:evenodd"
viewBox="0 0 2.57 2.57"
 xmlns:xlink="http://www.w3.org/1999/xlink"
 xmlns:xodm="http://www.corel.com/coreldraw/odm/2003">
 <defs>
  <style type="text/css">
   <![CDATA[
    .fil0 {fill:white}
   ]]>
  </style>
 </defs>
 <g id="Camada_x0020_1">
  <metadata id="CorelCorpID_0Corel-Layer"/>
  <path class="fil0" d="M1.27 0.64l0.03 0c0.05,0 0.09,0.04 0.09,0.08l0 0.46 0.45 0c0.05,0 0.09,0.04 0.09,0.09l0 0.03c0,0.05 -0.04,0.09 -0.09,0.09l-0.45 0 0 0.45c0,0.05 -0.04,0.09 -0.09,0.09l-0.03 0c-0.05,0 -0.09,-0.04 -0.09,-0.09l0 -0.45 -0.46 0c-0.04,0 -0.08,-0.04 -0.08,-0.09l0 -0.03c0,-0.05 0.04,-0.09 0.08,-0.09l0.46 0 0 -0.46c0,-0.04 0.04,-0.08 0.09,-0.08zm0.01 -0.64c0.71,0 1.29,0.57 1.29,1.28 0,0.71 -0.58,1.29 -1.29,1.29 -0.71,0 -1.28,-0.58 -1.28,-1.29 0,-0.71 0.57,-1.28 1.28,-1.28zm0 0.15c0.63,0 1.13,0.51 1.13,1.13 0,0.63 -0.5,1.13 -1.13,1.13 -0.62,0 -1.13,-0.5 -1.13,-1.13 0,-0.62 0.51,-1.13 1.13,-1.13z"/>
 </g>
</svg>
