<?xml version="1.0" encoding="UTF-8"?>
<!DOCTYPE svg PUBLIC "-//W3C//DTD SVG 1.1//EN" "http://www.w3.org/Graphics/SVG/1.1/DTD/svg11.dtd">
<!-- Creator: CorelDRAW (Evaluation Version) -->
<svg xmlns="http://www.w3.org/2000/svg" xml:space="preserve" width="30px" height="30px" version="1.1" style="shape-rendering:geometricPrecision; text-rendering:geometricPrecision; image-rendering:optimizeQuality; fill-rule:evenodd; clip-rule:evenodd"
viewBox="0 0 1.32 1.32"
 xmlns:xlink="http://www.w3.org/1999/xlink"
 xmlns:xodm="http://www.corel.com/coreldraw/odm/2003">
 <defs>
  <style type="text/css">
   <![CDATA[
    .fil1 {fill:none}
    .fil0 {fill:white}
   ]]>
  </style>
 </defs>
 <g id="Camada_x0020_1">
  <metadata id="CorelCorpID_0Corel-Layer"/>
  <path class="fil0" d="M0.59 0.11l0.04 0c0.06,0 0.11,0.05 0.11,0.11l0 0.6c0.05,0.04 0.09,0.1 0.09,0.17 0,0.12 -0.1,0.22 -0.22,0.22 -0.12,0 -0.22,-0.1 -0.22,-0.22 0,-0.07 0.04,-0.13 0.09,-0.17l0 -0.6c0,-0.06 0.05,-0.11 0.11,-0.11zm0.18 0.12l0.12 0 0 0.04 -0.12 0 0 -0.04zm0 0.55l0.16 0 0 0.04 -0.16 0 0 -0.04zm0 -0.16l0.16 0 0 0.04 -0.16 0 0 -0.04zm0 0.08l0.12 0 0 0.04 -0.12 0 0 -0.04zm0 -0.23l0.16 0 0 0.04 -0.16 0 0 -0.04zm0 -0.16l0.16 0 0 0.04 -0.16 0 0 -0.04zm0 0.24l0.12 0 0 0.04 -0.12 0 0 -0.04zm0 -0.16l0.12 0 0 0.04 -0.12 0 0 -0.04zm0 -0.24l0.16 0 0 0.04 -0.16 0 0 -0.04zm-0.11 0.71c0.05,0.02 0.09,0.07 0.09,0.13 0,0.08 -0.06,0.15 -0.14,0.15 -0.08,0 -0.14,-0.07 -0.14,-0.15 0,-0.06 0.03,-0.11 0.09,-0.13l0 -0.31c0,-0.02 0.01,-0.03 0.03,-0.03l0.04 0c0.02,0 0.03,0.01 0.03,0.03l0 0.31zm0.02 0.07c0,0 0.02,0.04 0.02,0.07 -0.01,0.03 -0.02,0.05 -0.02,0.05 0,0 -0.01,0.01 0,0.02 0.01,0.01 0.02,0 0.02,0 0.01,-0.01 0.02,-0.02 0.03,-0.05 0,-0.03 0,-0.05 -0.02,-0.08 0,0 -0.01,-0.02 -0.02,-0.02 -0.01,0 -0.01,0.01 -0.01,0.01zm0.01 -0.09c0.06,0.03 0.09,0.09 0.09,0.15 0,0.1 -0.08,0.18 -0.17,0.18 -0.1,0 -0.17,-0.08 -0.17,-0.18 0,-0.06 0.03,-0.12 0.08,-0.15l0 -0.61c0,-0.04 0.04,-0.08 0.08,-0.08l0.02 0c0.04,0 0.07,0.04 0.07,0.08l0 0.61z"/>
  <rect class="fil1" width="1.32" height="1.32"/>
 </g>
</svg>
