<?xml version="1.0" encoding="UTF-8"?>
<!DOCTYPE svg PUBLIC "-//W3C//DTD SVG 1.1//EN" "http://www.w3.org/Graphics/SVG/1.1/DTD/svg11.dtd">
<!-- Creator: CorelDRAW (Evaluation Version) -->
<svg xmlns="http://www.w3.org/2000/svg" xml:space="preserve" width="100px" height="100px" version="1.1" style="shape-rendering:geometricPrecision; text-rendering:geometricPrecision; image-rendering:optimizeQuality; fill-rule:evenodd; clip-rule:evenodd"
viewBox="0 0 7.33 7.33"
 xmlns:xlink="http://www.w3.org/1999/xlink"
 xmlns:xodm="http://www.corel.com/coreldraw/odm/2003">
 <defs>
  <style type="text/css">
   <![CDATA[
    .fil1 {fill:none}
    .fil0 {fill:white}
   ]]>
  </style>
 </defs>
 <g id="Camada_x0020_1">
  <metadata id="CorelCorpID_0Corel-Layer"/>
  <path class="fil0" d="M1.28 3.38c0,-0.01 -0.06,-0.68 0.46,-1.08 0.29,-0.22 0.83,-0.37 1.15,-0.04 0.39,-1 1.63,-0.93 2.13,-0.67 1.17,0.61 0.87,1.85 0.87,1.85 0,0 1.05,0.11 1.07,1.19 0.02,1.09 -0.96,1.27 -0.96,1.27l-4.67 0c0,0 -0.98,-0.22 -0.96,-1.29 0.02,-1.08 0.91,-1.23 0.91,-1.23zm0.41 0.21c0,0 -0.17,-0.64 0.27,-0.94 0.31,-0.22 0.74,-0.12 1.01,0.13 0.35,-0.87 1.09,-1.19 1.89,-0.76 1.18,0.63 0.53,1.81 0.53,1.81 0,0 1.09,-0.13 1.14,0.77 0.04,0.9 -0.8,0.92 -0.8,0.92l-4.17 0c0,0 -0.76,-0.16 -0.78,-0.98 -0.01,-0.82 0.91,-0.95 0.91,-0.95z"/>
  <rect class="fil1" width="7.33" height="7.33"/>
 </g>
</svg>
