<?xml version="1.0" encoding="UTF-8"?>
<!DOCTYPE svg PUBLIC "-//W3C//DTD SVG 1.1//EN" "http://www.w3.org/Graphics/SVG/1.1/DTD/svg11.dtd">
<!-- Creator: CorelDRAW (Evaluation Version) -->
<svg xmlns="http://www.w3.org/2000/svg" xml:space="preserve" width="100px" height="100px" version="1.1" style="shape-rendering:geometricPrecision; text-rendering:geometricPrecision; image-rendering:optimizeQuality; fill-rule:evenodd; clip-rule:evenodd"
viewBox="0 0 5.77 5.77"
 xmlns:xlink="http://www.w3.org/1999/xlink"
 xmlns:xodm="http://www.corel.com/coreldraw/odm/2003">
 <defs>
  <style type="text/css">
   <![CDATA[
    .fil2 {fill:none}
    .fil1 {fill:#E7B056}
    .fil0 {fill:white}
   ]]>
  </style>
 </defs>
 <g id="Camada_x0020_1">
  <metadata id="CorelCorpID_0Corel-Layer"/>
  <g id="_2728369388432">
   <path class="fil0" d="M0.97 3.43c0,0 -0.04,-0.51 0.35,-0.8 0.21,-0.17 0.61,-0.28 0.85,-0.03 0.29,-0.75 1.22,-0.7 1.59,-0.5 0.87,0.45 0.65,1.38 0.65,1.38 0,0 0.78,0.08 0.8,0.89 0.01,0.8 -0.72,0.94 -0.72,0.94l-3.48 0c0,0 -0.74,-0.16 -0.72,-0.96 0.01,-0.8 0.68,-0.92 0.68,-0.92zm0.3 0.16c0,0 -0.12,-0.48 0.21,-0.7 0.23,-0.17 0.55,-0.09 0.75,0.1 0.26,-0.66 0.81,-0.89 1.41,-0.57 0.88,0.47 0.4,1.35 0.4,1.35 0,0 0.81,-0.1 0.84,0.57 0.04,0.67 -0.59,0.69 -0.59,0.69l-3.11 0c0,0 -0.57,-0.12 -0.58,-0.73 -0.01,-0.61 0.67,-0.71 0.67,-0.71z"/>
   <path class="fil1" d="M4.41 0.61c0,0 -1.09,0.16 -0.99,1.25l-0.15 0.01c0,0 -0.16,-1.14 1.11,-1.41 0,0 0.2,-0.02 0.24,0 0.03,0.02 0.04,0.01 0.06,0.06 0.02,0.05 -0.08,0.11 -0.08,0.12 -0.01,0.01 -0.37,0.29 -0.34,0.83 0.02,0.54 0.44,0.81 0.57,0.87 0.14,0.06 0.28,0.13 0.55,0.11 0,0 0.07,-0.02 0.09,0.05 0.02,0.07 -0.05,0.1 -0.06,0.12 -0.01,0.02 -0.3,0.34 -0.89,0.37l-0.02 -0.16c0,0 0.35,0.04 0.71,-0.23 0,0 -0.55,-0.02 -0.88,-0.49 0,0 -0.29,-0.36 -0.22,-0.85 0,0 0.05,-0.39 0.3,-0.65z"/>
  </g>
  <rect class="fil2" width="5.77" height="5.77"/>
 </g>
</svg>
