<?xml version="1.0" encoding="UTF-8"?>
<!DOCTYPE svg PUBLIC "-//W3C//DTD SVG 1.1//EN" "http://www.w3.org/Graphics/SVG/1.1/DTD/svg11.dtd">
<!-- Creator: CorelDRAW (Evaluation Version) -->
<svg xmlns="http://www.w3.org/2000/svg" xml:space="preserve" width="100px" height="100px" version="1.1" style="shape-rendering:geometricPrecision; text-rendering:geometricPrecision; image-rendering:optimizeQuality; fill-rule:evenodd; clip-rule:evenodd"
viewBox="0 0 8.8 8.8"
 xmlns:xlink="http://www.w3.org/1999/xlink"
 xmlns:xodm="http://www.corel.com/coreldraw/odm/2003">
 <defs>
  <style type="text/css">
   <![CDATA[
    .fil2 {fill:none}
    .fil1 {fill:#E7B056}
    .fil0 {fill:white}
   ]]>
  </style>
 </defs>
 <g id="Camada_x0020_1">
  <metadata id="CorelCorpID_0Corel-Layer"/>
  <g id="_2728365143488">
   <path class="fil0" d="M1.43 5.45c0,0 -0.06,-0.74 0.51,-1.17 0.31,-0.24 0.89,-0.4 1.24,-0.04 0.42,-1.09 1.78,-1.01 2.31,-0.73 1.27,0.66 0.95,2.01 0.95,2.01 0,0 1.14,0.12 1.16,1.29 0.03,1.18 -1.04,1.38 -1.04,1.38l-5.07 0c0,0 -1.07,-0.24 -1.05,-1.4 0.02,-1.17 0.99,-1.34 0.99,-1.34zm0.44 0.24c0,-0.01 -0.17,-0.7 0.3,-1.03 0.34,-0.24 0.81,-0.12 1.1,0.14 0.38,-0.95 1.18,-1.29 2.06,-0.82 1.27,0.68 0.57,1.96 0.57,1.96 0,0 1.18,-0.14 1.23,0.84 0.05,0.97 -0.87,1 -0.87,1l-4.53 0c0,0 -0.82,-0.18 -0.84,-1.07 -0.01,-0.88 0.98,-1.02 0.98,-1.02z"/>
   <path class="fil1" d="M4.19 1.34l0.05 -0.05c0.05,-0.05 0.14,-0.05 0.2,0l0.43 0.43c0.05,0.06 0.05,0.15 0,0.2l-0.05 0.05c-0.05,0.05 -0.14,0.05 -0.2,0l-0.43 -0.43c-0.05,-0.06 -0.05,-0.15 0,-0.2zm0.6 1.69c-0.1,0 -0.18,-0.08 -0.18,-0.18 0,-0.62 0.72,-1.14 1.32,-1.14 0.74,0 1.33,0.6 1.33,1.33 0,0.49 -0.26,0.92 -0.65,1.15 -0.04,0.03 -0.08,0.04 -0.12,0.04 -0.09,0 -0.18,-0.09 -0.18,-0.18 0,-0.09 0.05,-0.14 0.12,-0.17 0.28,-0.12 0.48,-0.54 0.48,-0.84 0,-0.54 -0.44,-0.97 -0.98,-0.97 -0.48,0 -0.87,0.34 -0.96,0.79 -0.01,0.1 -0.08,0.17 -0.18,0.17zm3.57 -0.01l0 0.06c0,0.08 -0.06,0.15 -0.14,0.15l-0.61 0c-0.07,0 -0.14,-0.07 -0.14,-0.15l0 -0.06c0,-0.08 0.07,-0.14 0.14,-0.14l0.61 0c0.08,0 0.14,0.06 0.14,0.14zm-0.7 1.73l-0.04 0.04c-0.05,0.06 -0.14,0.06 -0.2,0l-0.43 -0.43c-0.05,-0.05 -0.05,-0.14 0,-0.2l0.04 -0.04c0.06,-0.06 0.15,-0.06 0.21,0l0.42 0.43c0.06,0.05 0.06,0.14 0,0.2zm-0.03 -3.44l0.05 0.04c0.05,0.06 0.05,0.15 0,0.2l-0.43 0.43c-0.06,0.06 -0.15,0.06 -0.2,0l-0.05 -0.04c-0.05,-0.06 -0.05,-0.15 0,-0.2l0.43 -0.43c0.06,-0.06 0.15,-0.06 0.2,0zm-1.72 -0.7l0.06 0c0.08,0 0.14,0.06 0.14,0.14l0 0.61c0,0.08 -0.06,0.14 -0.14,0.14l-0.06 0c-0.08,0 -0.15,-0.06 -0.15,-0.14l0 -0.61c0,-0.08 0.07,-0.14 0.15,-0.14z"/>
  </g>
  <rect class="fil2" width="8.8" height="8.8"/>
 </g>
</svg>
