<?xml version="1.0" encoding="UTF-8"?>
<!DOCTYPE svg PUBLIC "-//W3C//DTD SVG 1.1//EN" "http://www.w3.org/Graphics/SVG/1.1/DTD/svg11.dtd">
<!-- Creator: CorelDRAW (Evaluation Version) -->
<svg xmlns="http://www.w3.org/2000/svg" xml:space="preserve" width="100px" height="100px" version="1.1" style="shape-rendering:geometricPrecision; text-rendering:geometricPrecision; image-rendering:optimizeQuality; fill-rule:evenodd; clip-rule:evenodd"
viewBox="0 0 4.52 4.52"
 xmlns:xlink="http://www.w3.org/1999/xlink"
 xmlns:xodm="http://www.corel.com/coreldraw/odm/2003">
 <defs>
  <style type="text/css">
   <![CDATA[
    .fil2 {fill:none}
    .fil1 {fill:#4F7CB5}
    .fil0 {fill:white}
   ]]>
  </style>
 </defs>
 <g id="Camada_x0020_1">
  <metadata id="CorelCorpID_0Corel-Layer"/>
  <g id="_2728360473152">
   <path class="fil0" d="M0.79 1.67c0,0 -0.04,-0.42 0.29,-0.66 0.17,-0.14 0.5,-0.23 0.7,-0.03 0.24,-0.61 1.01,-0.57 1.31,-0.41 0.72,0.38 0.54,1.14 0.54,1.14 0,0 0.65,0.07 0.66,0.73 0.01,0.67 -0.59,0.79 -0.59,0.79l-2.88 0c0,0 -0.61,-0.14 -0.59,-0.8 0.01,-0.66 0.56,-0.76 0.56,-0.76zm0.25 0.13c0,0 -0.1,-0.39 0.17,-0.58 0.19,-0.13 0.46,-0.07 0.62,0.08 0.22,-0.54 0.67,-0.73 1.17,-0.47 0.72,0.39 0.32,1.12 0.32,1.12 0,0 0.67,-0.08 0.7,0.47 0.03,0.56 -0.49,0.57 -0.49,0.57l-2.57 0c0,0 -0.47,-0.1 -0.48,-0.6 -0.01,-0.51 0.56,-0.59 0.56,-0.59z"/>
   <path class="fil1" d="M1.28 3.37l0 0c0.07,0.02 0.1,0.1 0.07,0.16l-0.16 0.44c-0.03,0.06 -0.1,0.1 -0.17,0.07l0 0c-0.06,-0.02 -0.09,-0.1 -0.07,-0.16l0.17 -0.44c0.03,-0.06 0.1,-0.09 0.16,-0.07zm2.14 0l0 0c0.06,0.02 0.1,0.1 0.07,0.16l-0.17 0.44c-0.02,0.06 -0.09,0.1 -0.16,0.07l0 0c-0.06,-0.02 -0.1,-0.1 -0.07,-0.16l0.17 -0.44c0.02,-0.06 0.1,-0.09 0.16,-0.07zm-0.41 0l0 0c0.06,0.02 0.09,0.1 0.07,0.16l-0.17 0.44c-0.03,0.06 -0.1,0.1 -0.16,0.07l0 0c-0.07,-0.02 -0.1,-0.1 -0.07,-0.16l0.16 -0.44c0.03,-0.06 0.1,-0.09 0.17,-0.07zm-0.49 0l0 0c0.07,0.02 0.1,0.1 0.07,0.16l-0.16 0.44c-0.03,0.06 -0.1,0.1 -0.17,0.07l0 0c-0.06,-0.02 -0.09,-0.1 -0.07,-0.16l0.17 -0.44c0.03,-0.06 0.1,-0.09 0.16,-0.07zm-0.41 0l0 0c0.06,0.02 0.1,0.1 0.07,0.16l-0.17 0.44c-0.02,0.06 -0.1,0.1 -0.16,0.07l0 0c-0.06,-0.02 -0.1,-0.1 -0.07,-0.16l0.17 -0.44c0.02,-0.06 0.09,-0.09 0.16,-0.07zm-0.41 0l0 0c0.06,0.02 0.09,0.1 0.07,0.16l-0.17 0.44c-0.03,0.06 -0.1,0.1 -0.16,0.07l0 0c-0.07,-0.02 -0.1,-0.1 -0.07,-0.16l0.16 -0.44c0.03,-0.06 0.1,-0.09 0.17,-0.07z"/>
  </g>
  <rect class="fil2" width="4.52" height="4.52"/>
 </g>
</svg>
