<?xml version="1.0" encoding="UTF-8"?>
<!DOCTYPE svg PUBLIC "-//W3C//DTD SVG 1.1//EN" "http://www.w3.org/Graphics/SVG/1.1/DTD/svg11.dtd">
<!-- Creator: CorelDRAW (Evaluation Version) -->
<svg xmlns="http://www.w3.org/2000/svg" xml:space="preserve" width="100px" height="100px" version="1.1" style="shape-rendering:geometricPrecision; text-rendering:geometricPrecision; image-rendering:optimizeQuality; fill-rule:evenodd; clip-rule:evenodd"
viewBox="0 0 7.22 7.22"
 xmlns:xlink="http://www.w3.org/1999/xlink"
 xmlns:xodm="http://www.corel.com/coreldraw/odm/2003">
 <defs>
  <style type="text/css">
   <![CDATA[
    .fil2 {fill:none}
    .fil1 {fill:#4F7CB5}
    .fil0 {fill:white}
   ]]>
  </style>
 </defs>
 <g id="Camada_x0020_1">
  <metadata id="CorelCorpID_0Corel-Layer"/>
  <g id="_2728291532032">
   <path class="fil0" d="M1.35 2.15c0,0 -0.05,-0.62 0.44,-0.99 0.28,-0.2 0.78,-0.33 1.08,-0.03 0.38,-0.92 1.55,-0.85 2.02,-0.62 1.11,0.56 0.82,1.7 0.82,1.7 0,0 1,0.1 1.02,1.09 0.02,0.99 -0.91,1.16 -0.91,1.16 -0.33,0 -0.67,0.01 -1,0.01 -0.1,0 -0.18,-0.08 -0.18,-0.18 0,-0.1 0.08,-0.18 0.18,-0.18 0.25,0 0.5,0 0.74,0 0,0 0.8,-0.02 0.76,-0.84 -0.04,-0.82 -1.08,-0.71 -1.08,-0.71 0,0 0.62,-1.08 -0.49,-1.65 -0.76,-0.4 -1.47,-0.11 -1.8,0.69 -0.25,-0.22 -0.66,-0.32 -0.96,-0.11 -0.41,0.27 -0.25,0.86 -0.25,0.86 0,0 -0.87,0.12 -0.86,0.87 0.01,0.75 0.73,0.89 0.73,0.89 0.28,0 0.55,0 0.82,0 0.1,0 0.18,0.08 0.18,0.18 0,0.1 -0.08,0.18 -0.18,0.18 -0.34,0 -0.69,-0.01 -1.03,-0.01 0,0 -0.93,-0.2 -0.91,-1.18 0.02,-0.99 0.86,-1.13 0.86,-1.13z"/>
   <path class="fil1" d="M3.6 5.85l0 0c-0.09,-0.05 -0.13,-0.16 -0.09,-0.25l0.86 -1.92c0.04,-0.1 0.15,-0.14 0.25,-0.1l0 0c0.09,0.05 0.13,0.16 0.09,0.25l-0.86 1.92c-0.04,0.1 -0.15,0.14 -0.25,0.1zm-1.13 -0.37l0 0c-0.09,-0.04 -0.13,-0.15 -0.09,-0.24l0.7 -1.56c0.04,-0.1 0.15,-0.14 0.24,-0.1l0 0c0.09,0.05 0.14,0.16 0.09,0.25l-0.69 1.56c-0.05,0.09 -0.16,0.13 -0.25,0.09zm0.03 1.36l0 0c-0.09,-0.04 -0.13,-0.15 -0.09,-0.24l1.31 -2.92c0.04,-0.1 0.15,-0.14 0.25,-0.1l0 0c0.09,0.05 0.13,0.16 0.09,0.25l-1.31 2.92c-0.04,0.09 -0.15,0.14 -0.25,0.09z"/>
  </g>
  <rect class="fil2" width="7.22" height="7.22"/>
 </g>
</svg>
