<?xml version="1.0" encoding="UTF-8"?>
<!DOCTYPE svg PUBLIC "-//W3C//DTD SVG 1.1//EN" "http://www.w3.org/Graphics/SVG/1.1/DTD/svg11.dtd">
<!-- Creator: CorelDRAW (Evaluation Version) -->
<svg xmlns="http://www.w3.org/2000/svg" xml:space="preserve" width="100px" height="100px" version="1.1" style="shape-rendering:geometricPrecision; text-rendering:geometricPrecision; image-rendering:optimizeQuality; fill-rule:evenodd; clip-rule:evenodd"
viewBox="0 0 5.06 5.06"
 xmlns:xlink="http://www.w3.org/1999/xlink"
 xmlns:xodm="http://www.corel.com/coreldraw/odm/2003">
 <defs>
  <style type="text/css">
   <![CDATA[
    .fil2 {fill:none}
    .fil1 {fill:#4F7CB5}
    .fil0 {fill:white}
   ]]>
  </style>
 </defs>
 <g id="Camada_x0020_1">
  <metadata id="CorelCorpID_0Corel-Layer"/>
  <g id="_2728366145264">
   <path class="fil0" d="M0.88 1.76c0,0 -0.04,-0.45 0.32,-0.71 0.2,-0.15 0.57,-0.25 0.79,-0.03 0.27,-0.67 1.13,-0.62 1.47,-0.45 0.81,0.41 0.6,1.24 0.6,1.24 0,0 0.73,0.07 0.74,0.79 0.02,0.73 -0.66,0.85 -0.66,0.85 -0.24,0 -0.49,0 -0.73,0 -0.07,0 -0.13,-0.06 -0.13,-0.13 0,-0.07 0.06,-0.13 0.13,-0.13 0.18,0 0.36,0 0.54,0 0,0 0.58,-0.01 0.55,-0.61 -0.03,-0.6 -0.78,-0.51 -0.78,-0.51 0,0 0.45,-0.79 -0.36,-1.21 -0.56,-0.29 -1.07,-0.08 -1.31,0.51 -0.18,-0.17 -0.48,-0.24 -0.7,-0.09 -0.3,0.2 -0.19,0.63 -0.19,0.63 0,0 -0.63,0.08 -0.62,0.63 0.01,0.55 0.53,0.65 0.53,0.65 0.2,0 0.4,0 0.6,0 0.07,0 0.13,0.06 0.13,0.13 0,0.07 -0.06,0.13 -0.13,0.13 -0.25,0 -0.5,0 -0.75,0 0,0 -0.68,-0.15 -0.67,-0.87 0.02,-0.71 0.63,-0.82 0.63,-0.82z"/>
   <path class="fil1" d="M2.88 4.21l0 0c-0.02,0 -0.03,-0.01 -0.03,-0.03l0 -0.02 -0.02 0.02c-0.01,0.01 -0.02,0.01 -0.03,0l0 0c-0.02,0 -0.02,-0.02 -0.01,-0.03l0.06 -0.08 0 -0.11 -0.1 0.05 -0.03 0.09c0,0.01 -0.02,0.02 -0.03,0.01l0 0c-0.01,-0.01 -0.02,-0.02 -0.02,-0.03l0.01 -0.03 -0.03 0.02c-0.01,0.01 -0.03,0.01 -0.04,-0.01 0,-0.01 0,-0.03 0.02,-0.03l0.03 -0.02 -0.03 -0.01c-0.02,0 -0.02,-0.01 -0.02,-0.03l0 0c-0.01,-0.01 0.01,-0.02 0.02,-0.02l0.1 0.02 0.1 -0.06 -0.1 -0.06 -0.1 0.02c-0.01,0 -0.03,-0.01 -0.02,-0.02l0 0c0,-0.02 0,-0.03 0.02,-0.03l0.03 -0.01 -0.02 -0.01c-0.02,-0.01 -0.02,-0.02 -0.02,-0.04l0 0c0.01,-0.01 0.03,-0.01 0.04,0l0.02 0.01 -0.01 -0.03c0,-0.01 0.01,-0.02 0.02,-0.03l0 0c0.01,-0.01 0.03,0 0.03,0.01l0.03 0.09 0.1 0.05 0 -0.1 -0.06 -0.08c-0.01,-0.01 -0.01,-0.03 0.01,-0.03l0 0c0.01,-0.01 0.02,-0.01 0.03,0l0.02 0.02 0 -0.03c0,-0.01 0.01,-0.03 0.03,-0.03 0.01,0 0.02,0.01 0.02,0.03l0 0.04 0.02 -0.03c0.01,-0.01 0.03,-0.01 0.04,0l0 0c0.01,0 0.01,0.02 0,0.03l-0.06 0.08 0 0.11 0.1 -0.06 0.03 -0.09c0.01,-0.01 0.03,-0.02 0.04,-0.01l0 0c0.01,0.01 0.02,0.02 0.01,0.03l-0.01 0.03 0.02 -0.01c0.02,-0.01 0.03,-0.01 0.04,0l0 0c0.01,0.02 0,0.03 -0.01,0.04l-0.02 0.01 0.03 0.01c0.01,0 0.02,0.01 0.02,0.03l0 0c0,0.01 -0.02,0.02 -0.03,0.02l-0.09 -0.02 -0.1 0.06 0.1 0.06 0.09 -0.02c0.01,0 0.03,0.01 0.03,0.02l0 0c0,0.02 -0.01,0.03 -0.02,0.03l-0.03 0.01 0.03 0.01c0.01,0.01 0.02,0.03 0.01,0.04 -0.01,0.01 -0.02,0.02 -0.04,0.01l-0.03 -0.02 0.01 0.03c0.01,0.01 0,0.02 -0.01,0.03l0 0c-0.01,0.01 -0.03,0 -0.04,-0.01l-0.03 -0.09 -0.1 -0.06 0 0.12 0.06 0.08c0.01,0.01 0.01,0.03 0,0.03l0 0c-0.01,0.01 -0.03,0.01 -0.04,0l-0.02 -0.03 0 0.03c0,0.02 -0.01,0.03 -0.02,0.03z"/>
   <path class="fil1" d="M2.26 3.61l0 0c-0.01,0 -0.02,-0.01 -0.02,-0.03l0 -0.02 -0.02 0.02c-0.01,0.01 -0.02,0.01 -0.04,0.01l0 0c-0.01,-0.01 -0.01,-0.03 0,-0.04l0.06 -0.07 0 -0.12 -0.1 0.06 -0.03 0.08c-0.01,0.02 -0.03,0.03 -0.04,0.02l0 0c-0.01,-0.01 -0.02,-0.02 -0.01,-0.04l0.01 -0.02 -0.03 0.01c-0.01,0.01 -0.03,0.01 -0.04,0 -0.01,-0.02 0,-0.03 0.02,-0.04l0.02 -0.02 -0.03 0c-0.01,-0.01 -0.01,-0.02 -0.02,-0.03l0 0c0,-0.02 0.02,-0.03 0.03,-0.03l0.1 0.02 0.09 -0.06 -0.1 -0.05 -0.09 0.01c-0.01,0 -0.03,-0.01 -0.03,-0.02l0 0c0.01,-0.01 0.01,-0.03 0.02,-0.03l0.03 0 -0.02 -0.02c-0.01,0 -0.02,-0.02 -0.01,-0.03l0 0c0.01,-0.02 0.02,-0.02 0.04,-0.01l0.02 0.01 -0.01 -0.03c-0.01,-0.01 0,-0.02 0.01,-0.03l0 0c0.01,-0.01 0.03,0 0.04,0.01l0.03 0.09 0.1 0.06 0 -0.11 -0.06 -0.07c-0.01,-0.01 -0.01,-0.03 0,-0.04l0 0c0.02,0 0.03,-0.01 0.04,0l0.02 0.03 0 -0.03c0,-0.02 0.01,-0.04 0.02,-0.04 0.02,0 0.03,0.02 0.03,0.04l0 0.03 0.02 -0.03c0.01,-0.01 0.02,0 0.04,0l0 0c0.01,0.01 0.01,0.03 0,0.04l-0.06 0.07 0 0.11 0.1 -0.06 0.03 -0.09c0.01,-0.01 0.02,-0.02 0.03,-0.01l0 0c0.01,0.01 0.02,0.02 0.02,0.03l-0.01 0.03 0.02 -0.01c0.01,-0.01 0.03,-0.01 0.04,0.01l0 0c0.01,0.01 0,0.03 -0.01,0.03l-0.02 0.02 0.02 0c0.02,0 0.02,0.02 0.03,0.03l0 0c0,0.01 -0.02,0.02 -0.03,0.02l-0.09 -0.01 -0.1 0.05 0.1 0.06 0.09 -0.02c0.01,0 0.03,0.01 0.03,0.03l0 0c-0.01,0.01 -0.01,0.02 -0.03,0.03l-0.02 0 0.02 0.02c0.02,0 0.02,0.02 0.02,0.03 -0.01,0.02 -0.03,0.02 -0.04,0.01l-0.03 -0.02 0.01 0.03c0,0.02 -0.01,0.03 -0.02,0.04l0 0c-0.01,0.01 -0.02,0 -0.03,-0.02l-0.03 -0.09 -0.1 -0.05 0 0.12 0.06 0.07c0.01,0.01 0.01,0.03 0,0.04l0 0c-0.02,0 -0.03,0 -0.04,-0.01l-0.02 -0.02 0 0.02c0,0.02 -0.01,0.03 -0.03,0.03z"/>
   <path class="fil1" d="M1.98 4.59l0 0c-0.01,0 -0.02,-0.01 -0.02,-0.03l0 -0.02 -0.02 0.02c-0.01,0.01 -0.02,0.01 -0.04,0.01l0 0c-0.01,-0.01 -0.01,-0.03 0,-0.04l0.06 -0.07 0 -0.12 -0.1 0.06 -0.03 0.08c-0.01,0.02 -0.03,0.03 -0.04,0.02l0 0c-0.01,-0.01 -0.02,-0.02 -0.01,-0.03l0.01 -0.03 -0.03 0.02c-0.01,0 -0.03,0 -0.04,-0.01 0,-0.01 0,-0.03 0.02,-0.04l0.03 -0.02 -0.04 0c-0.01,0 -0.01,-0.02 -0.02,-0.03l0 0c0,-0.02 0.02,-0.03 0.03,-0.02l0.1 0.01 0.09 -0.05 -0.09 -0.06 -0.1 0.01c-0.01,0.01 -0.03,0 -0.03,-0.02l0 0c0.01,-0.01 0.01,-0.02 0.02,-0.03l0.03 0 -0.02 -0.01c-0.01,-0.01 -0.02,-0.03 -0.01,-0.04l0 0c0.01,-0.01 0.03,-0.02 0.04,-0.01l0.02 0.01 -0.01 -0.03c-0.01,-0.01 0,-0.02 0.01,-0.03l0 0c0.01,-0.01 0.03,0 0.04,0.02l0.03 0.08 0.1 0.06 0 -0.11 -0.06 -0.07c-0.01,-0.01 -0.01,-0.03 0,-0.04l0 0c0.02,0 0.03,0 0.04,0.01l0.02 0.02 0 -0.03c0,-0.02 0.01,-0.03 0.02,-0.03 0.02,0 0.03,0.01 0.03,0.03l0 0.03 0.02 -0.02c0.01,-0.01 0.02,-0.01 0.04,-0.01l0 0c0.01,0.01 0.01,0.03 0,0.04l-0.06 0.07 0 0.11 0.1 -0.06 0.03 -0.08c0.01,-0.02 0.02,-0.03 0.03,-0.02l0 0c0.02,0.01 0.03,0.02 0.02,0.03l-0.01 0.03 0.02 -0.01c0.01,-0.01 0.03,0 0.04,0.01l0 0c0.01,0.01 0,0.03 -0.01,0.04l-0.02 0.01 0.03 0c0.01,0.01 0.01,0.02 0.02,0.03l0 0c0,0.02 -0.02,0.03 -0.03,0.02l-0.09 -0.01 -0.1 0.06 0.1 0.05 0.09 -0.01c0.01,-0.01 0.03,0 0.03,0.02l0 0c-0.01,0.01 -0.01,0.03 -0.02,0.03l-0.03 0 0.02 0.02c0.02,0.01 0.03,0.02 0.02,0.04 -0.01,0.01 -0.03,0.01 -0.04,0l-0.03 -0.01 0.01 0.03c0.01,0.01 0,0.02 -0.02,0.03l0 0c-0.01,0.01 -0.02,0 -0.03,-0.02l-0.03 -0.08 -0.1 -0.06 0 0.12 0.06 0.07c0.01,0.01 0.01,0.03 0,0.04l0 0c-0.02,0 -0.03,0 -0.04,-0.01l-0.02 -0.02 0 0.02c0,0.02 -0.01,0.03 -0.03,0.03z"/>
  </g>
  <rect class="fil2" width="5.06" height="5.06"/>
 </g>
</svg>
