<?xml version="1.0" encoding="UTF-8"?>
<!DOCTYPE svg PUBLIC "-//W3C//DTD SVG 1.1//EN" "http://www.w3.org/Graphics/SVG/1.1/DTD/svg11.dtd">
<!-- Creator: CorelDRAW (Evaluation Version) -->
<svg xmlns="http://www.w3.org/2000/svg" xml:space="preserve" width="100px" height="100px" version="1.1" style="shape-rendering:geometricPrecision; text-rendering:geometricPrecision; image-rendering:optimizeQuality; fill-rule:evenodd; clip-rule:evenodd"
viewBox="0 0 8.68 8.68"
 xmlns:xlink="http://www.w3.org/1999/xlink"
 xmlns:xodm="http://www.corel.com/coreldraw/odm/2003">
 <defs>
  <style type="text/css">
   <![CDATA[
    .fil0 {fill:none}
    .fil1 {fill:#4F7CB5}
    .fil2 {fill:#E7B056}
   ]]>
  </style>
 </defs>
 <g id="Camada_x0020_1">
  <metadata id="CorelCorpID_0Corel-Layer"/>
  <rect class="fil0" width="8.68" height="8.68"/>
  <g id="_2728296129440">
   <path class="fil1" d="M4.12 8.25l0 0c-0.19,0 -0.34,-0.19 -0.34,-0.41l0 -0.3 -0.25 0.3c-0.12,0.15 -0.29,0.1 -0.47,0.05 -0.18,-0.05 -0.17,-0.33 -0.05,-0.48l0.77 -0.93 0 -1.53 -1.28 0.74 -0.42 1.12c-0.07,0.18 -0.31,0.33 -0.44,0.2l0 0c-0.13,-0.13 -0.26,-0.26 -0.2,-0.44l0.13 -0.35 -0.35 0.21c-0.19,0.11 -0.43,0.07 -0.52,-0.09 -0.09,-0.16 -0.01,-0.38 0.18,-0.5l0.39 -0.22 -0.42 -0.07c-0.18,-0.03 -0.23,-0.21 -0.28,-0.39 -0.04,-0.18 0.21,-0.31 0.39,-0.28l1.23 0.21 1.28 -0.75 -1.29 -0.74 -1.22 0.2c-0.18,0.03 -0.43,-0.09 -0.39,-0.27 0.05,-0.19 0.1,-0.36 0.28,-0.39l0.4 -0.07 -0.27 -0.16c-0.19,-0.11 -0.27,-0.33 -0.18,-0.49l0 0c0.09,-0.16 0.33,-0.21 0.52,-0.09l0.26 0.14 -0.14 -0.36c-0.06,-0.18 0.07,-0.31 0.2,-0.44 0.13,-0.13 0.37,0.03 0.44,0.2l0.42 1.13 1.28 0.74 -0.01 -1.42 -0.76 -0.92c-0.12,-0.15 -0.13,-0.43 0.05,-0.48 0.18,-0.05 0.35,-0.1 0.47,0.05l0.24 0.28 0 -0.41c0,-0.22 0.15,-0.4 0.34,-0.4 0.01,0 0.02,0 0.03,0l0 7.8 -0.02 0.01z"/>
   <path class="fil2" d="M4.21 2.2c1.18,0 2.14,0.95 2.14,2.14 0,1.18 -0.96,2.14 -2.14,2.14l-0.07 0 0 -0.58c0.02,0 0.05,0 0.07,0 0.86,0 1.56,-0.7 1.56,-1.56 0,-0.87 -0.7,-1.57 -1.56,-1.57 -0.02,0 -0.05,0 -0.07,0l0 -0.57 0.07 0zm0.03 6.04l-0.1 0 0 0 0 -1.43 0 0 0.1 0c0.13,0 0.23,0.11 0.23,0.23l0 0.97c0,0.13 -0.1,0.23 -0.23,0.23zm2.75 -1.17l-0.07 0.07c-0.09,0.09 -0.23,0.09 -0.32,0l-0.69 -0.68c-0.09,-0.09 -0.09,-0.24 0,-0.33l0.07 -0.07c0.09,-0.09 0.24,-0.09 0.33,0l0.68 0.69c0.09,0.09 0.09,0.24 0,0.32zm1.12 -2.77l0 0.1c0,0.13 -0.1,0.23 -0.23,0.23l-0.97 0c-0.12,0 -0.23,-0.1 -0.23,-0.23l0 -0.1c0,-0.12 0.11,-0.23 0.23,-0.23l0.97 0c0.13,0 0.23,0.11 0.23,0.23zm-1.17 -2.75l0.07 0.07c0.09,0.09 0.09,0.24 0,0.33l-0.68 0.68c-0.09,0.09 -0.24,0.09 -0.33,0l-0.07 -0.07c-0.09,-0.08 -0.09,-0.23 0,-0.32l0.69 -0.69c0.09,-0.09 0.24,-0.09 0.32,0zm-2.77 -1.12l0.1 0c0.13,0 0.23,0.11 0.23,0.23l0 0.97c0,0.13 -0.1,0.23 -0.23,0.23l-0.1 0c-0.01,0 -0.02,0 -0.03,0l0 -1.42c0.01,0 0.02,-0.01 0.03,-0.01z"/>
  </g>
 </g>
</svg>
