<?xml version="1.0" encoding="UTF-8"?>
<!DOCTYPE svg PUBLIC "-//W3C//DTD SVG 1.1//EN" "http://www.w3.org/Graphics/SVG/1.1/DTD/svg11.dtd">
<!-- Creator: CorelDRAW (Evaluation Version) -->
<svg xmlns="http://www.w3.org/2000/svg" xml:space="preserve" width="100px" height="100px" version="1.1" style="shape-rendering:geometricPrecision; text-rendering:geometricPrecision; image-rendering:optimizeQuality; fill-rule:evenodd; clip-rule:evenodd"
viewBox="0 0 6.67 6.67"
 xmlns:xlink="http://www.w3.org/1999/xlink"
 xmlns:xodm="http://www.corel.com/coreldraw/odm/2003">
 <defs>
  <style type="text/css">
   <![CDATA[
    .fil1 {fill:none}
    .fil0 {fill:#4F7CB5}
   ]]>
  </style>
 </defs>
 <g id="Camada_x0020_1">
  <metadata id="CorelCorpID_0Corel-Layer"/>
  <path class="fil0" d="M3.33 6.34l0 0c-0.14,0 -0.26,-0.14 -0.26,-0.32l0 -0.22 -0.19 0.23c-0.09,0.11 -0.23,0.07 -0.37,0.03l0 0c-0.14,-0.04 -0.12,-0.25 -0.03,-0.36l0.59 -0.72 0 -1.18 -0.99 0.57 -0.32 0.86c-0.05,0.14 -0.23,0.26 -0.33,0.16l0 0c-0.11,-0.11 -0.21,-0.21 -0.16,-0.34l0.1 -0.27 -0.27 0.16c-0.15,0.09 -0.33,0.05 -0.4,-0.07 -0.07,-0.12 -0.01,-0.3 0.14,-0.38l0.3 -0.17 -0.32 -0.06c-0.14,-0.02 -0.18,-0.16 -0.22,-0.3l0 0c-0.03,-0.14 0.16,-0.24 0.3,-0.21l0.94 0.16 0.99 -0.57 -0.99 -0.58 -0.94 0.16c-0.14,0.02 -0.33,-0.07 -0.3,-0.21l0 0c0.04,-0.14 0.08,-0.28 0.22,-0.3l0.31 -0.06 -0.21 -0.11c-0.15,-0.09 -0.21,-0.26 -0.14,-0.38l0 0c0.07,-0.13 0.25,-0.16 0.4,-0.08l0.2 0.12 -0.11 -0.28c-0.05,-0.14 0.05,-0.24 0.16,-0.34l0 0c0.1,-0.1 0.28,0.02 0.33,0.16l0.32 0.87 0.99 0.56 -0.01 -1.09 -0.58 -0.71c-0.09,-0.11 -0.11,-0.33 0.03,-0.37l0 0c0.14,-0.03 0.28,-0.07 0.37,0.04l0.18 0.22 0 -0.31c0,-0.18 0.12,-0.32 0.26,-0.32 0.14,0 0.26,0.14 0.26,0.31l0 0.35 0.21 -0.25c0.09,-0.11 0.23,-0.07 0.37,-0.04l0 0c0.13,0.04 0.12,0.26 0.03,0.37l-0.61 0.74 0.01 1.09 0.99 -0.58 0.33 -0.88c0.05,-0.14 0.23,-0.26 0.33,-0.16l0 0c0.11,0.1 0.21,0.2 0.16,0.34l-0.11 0.29 0.2 -0.12c0.15,-0.08 0.33,-0.05 0.4,0.07l0 0c0.07,0.13 0.01,0.3 -0.14,0.38l-0.19 0.12 0.29 0.05c0.14,0.02 0.18,0.16 0.21,0.3l0 0c0.04,0.14 -0.15,0.23 -0.29,0.21l-0.92 -0.15 -0.98 0.56 0.99 0.57 0.91 -0.15c0.14,-0.03 0.33,0.07 0.29,0.21l0 0c-0.03,0.14 -0.07,0.28 -0.21,0.3l-0.28 0.05 0.27 0.16c0.15,0.08 0.21,0.25 0.14,0.38 -0.07,0.12 -0.25,0.15 -0.4,0.07l-0.3 -0.17 0.12 0.3c0.05,0.13 -0.05,0.23 -0.16,0.34l0 0c-0.1,0.1 -0.28,-0.02 -0.33,-0.16l-0.33 -0.89 -0.99 -0.57 0 1.2 0.6 0.73c0.09,0.11 0.1,0.32 -0.03,0.36l0 0c-0.14,0.04 -0.28,0.08 -0.37,-0.03l-0.2 -0.24 0 0.23c0,0.17 -0.12,0.31 -0.26,0.32z"/>
  <rect class="fil1" width="6.67" height="6.67"/>
 </g>
</svg>
