<?xml version="1.0" encoding="UTF-8"?>
<!DOCTYPE svg PUBLIC "-//W3C//DTD SVG 1.1//EN" "http://www.w3.org/Graphics/SVG/1.1/DTD/svg11.dtd">
<!-- Creator: CorelDRAW (Evaluation Version) -->
<svg xmlns="http://www.w3.org/2000/svg" xml:space="preserve" width="100px" height="100px" version="1.1" style="shape-rendering:geometricPrecision; text-rendering:geometricPrecision; image-rendering:optimizeQuality; fill-rule:evenodd; clip-rule:evenodd"
viewBox="0 0 6.12 6.12"
 xmlns:xlink="http://www.w3.org/1999/xlink"
 xmlns:xodm="http://www.corel.com/coreldraw/odm/2003">
 <defs>
  <style type="text/css">
   <![CDATA[
    .fil3 {fill:none}
    .fil2 {fill:#4F7CB5}
    .fil1 {fill:#E7B056}
    .fil0 {fill:white}
   ]]>
  </style>
 </defs>
 <g id="Camada_x0020_1">
  <metadata id="CorelCorpID_0Corel-Layer"/>
  <g id="_2728294218080">
   <path class="fil0" d="M1.07 2.09c0,0 -0.05,-0.55 0.39,-0.86 0.24,-0.18 0.69,-0.3 0.95,-0.04 0.33,-0.81 1.37,-0.75 1.78,-0.54 0.98,0.5 0.73,1.5 0.73,1.5 0,0 0.88,0.08 0.89,0.96 0.02,0.88 -0.8,1.03 -0.8,1.03 -0.29,0 -0.59,0 -0.89,0 -0.08,0 -0.15,-0.07 -0.15,-0.16 0,-0.09 0.07,-0.16 0.15,-0.16 0.22,0 0.44,0.01 0.66,0.01 0,0 0.71,-0.02 0.67,-0.75 -0.04,-0.72 -0.95,-0.62 -0.95,-0.62 0,0 0.54,-0.95 -0.44,-1.46 -0.67,-0.35 -1.29,-0.09 -1.58,0.61 -0.22,-0.2 -0.58,-0.28 -0.85,-0.1 -0.36,0.24 -0.22,0.76 -0.22,0.76 0,0 -0.77,0.1 -0.76,0.77 0.02,0.66 0.65,0.79 0.65,0.79 0.24,0 0.48,-0.01 0.72,-0.01 0.09,0 0.16,0.07 0.16,0.16 0,0.09 -0.07,0.16 -0.16,0.16 -0.3,0 -0.61,0 -0.91,0 0,0 -0.82,-0.18 -0.8,-1.05 0.01,-0.87 0.76,-1 0.76,-1z"/>
   <path class="fil1" d="M3.79 3.97c0,0.06 -0.04,0.11 -0.08,0.16l-0.87 1.4c-0.05,0.07 -0.15,0.1 -0.23,0.05l0 0c-0.07,-0.05 -0.1,-0.15 -0.05,-0.23l0.75 -1.19 -0.8 0c-0.09,0 -0.16,-0.08 -0.16,-0.17l0 0c0,-0.03 0.01,-0.07 0.03,-0.1l0.78 -1.24c0.05,-0.07 0.15,-0.1 0.22,-0.05l0 0c0.08,0.05 0.1,0.15 0.06,0.23l-0.63 1 0.75 0c0.11,0 0.23,0.03 0.23,0.14z"/>
   <rect class="fil2" transform="matrix(0.261273 0.100968 -0.0325027 0.0841076 1.21582 4.23398)" width="1.17" height="10.39" rx="0.58" ry="0.58"/>
   <rect class="fil2" transform="matrix(0.261273 0.100968 -0.0325027 0.0841076 1.75451 4.23398)" width="1.17" height="10.39" rx="0.58" ry="0.58"/>
   <rect class="fil2" transform="matrix(0.261273 0.100968 -0.0325027 0.0841076 4.31792 4.23398)" width="1.17" height="10.39" rx="0.58" ry="0.58"/>
   <rect class="fil2" transform="matrix(0.261273 0.100968 -0.0325027 0.0841076 4.85662 4.23398)" width="1.17" height="10.39" rx="0.58" ry="0.58"/>
  </g>
  <rect class="fil3" width="6.12" height="6.12"/>
 </g>
</svg>
