<?xml version="1.0" encoding="UTF-8"?>
<!DOCTYPE svg PUBLIC "-//W3C//DTD SVG 1.1//EN" "http://www.w3.org/Graphics/SVG/1.1/DTD/svg11.dtd">
<!-- Creator: CorelDRAW (Evaluation Version) -->
<svg xmlns="http://www.w3.org/2000/svg" xml:space="preserve" width="100px" height="100px" version="1.1" style="shape-rendering:geometricPrecision; text-rendering:geometricPrecision; image-rendering:optimizeQuality; fill-rule:evenodd; clip-rule:evenodd"
viewBox="0 0 5.3 5.3"
 xmlns:xlink="http://www.w3.org/1999/xlink"
 xmlns:xodm="http://www.corel.com/coreldraw/odm/2003">
 <defs>
  <style type="text/css">
   <![CDATA[
    .fil1 {fill:none}
    .fil0 {fill:#E7B056}
   ]]>
  </style>
 </defs>
 <g id="Camada_x0020_1">
  <metadata id="CorelCorpID_0Corel-Layer"/>
  <path class="fil0" d="M2.65 1.34c0.72,0 1.31,0.59 1.31,1.31 0,0.72 -0.59,1.31 -1.31,1.31 -0.72,0 -1.31,-0.59 -1.31,-1.31 0,-0.72 0.59,-1.31 1.31,-1.31zm-1.7 -0.36l0.04 -0.04c0.06,-0.06 0.14,-0.06 0.2,0l0.42 0.42c0.05,0.05 0.05,0.14 0,0.19l-0.04 0.05c-0.06,0.05 -0.15,0.05 -0.2,0l-0.42 -0.42c-0.06,-0.06 -0.06,-0.15 0,-0.2zm-0.68 1.69l0 -0.06c0,-0.08 0.06,-0.14 0.14,-0.14l0.59 0c0.08,0 0.14,0.06 0.14,0.14l0 0.06c0,0.08 -0.06,0.14 -0.14,0.14l-0.59 0c-0.08,0 -0.14,-0.06 -0.14,-0.14zm0.71 1.68l-0.04 -0.04c-0.06,-0.05 -0.06,-0.14 0,-0.2l0.42 -0.42c0.05,-0.05 0.14,-0.05 0.19,0l0.05 0.04c0.05,0.06 0.05,0.15 0,0.2l-0.42 0.42c-0.06,0.06 -0.15,0.06 -0.2,0zm1.69 0.69l-0.06 0c-0.08,0 -0.14,-0.07 -0.14,-0.14l0 -0.6c0,-0.07 0.06,-0.14 0.14,-0.14l0.06 0c0.08,0 0.14,0.07 0.14,0.14l0 0.6c0,0.07 -0.06,0.14 -0.14,0.14zm1.68 -0.72l-0.04 0.04c-0.05,0.06 -0.14,0.06 -0.2,0l-0.42 -0.41c-0.05,-0.06 -0.05,-0.15 0,-0.2l0.04 -0.04c0.06,-0.06 0.15,-0.06 0.2,0l0.42 0.41c0.06,0.06 0.06,0.15 0,0.2zm0.69 -1.69l0 0.06c0,0.08 -0.07,0.14 -0.14,0.14l-0.6 0c-0.07,0 -0.14,-0.06 -0.14,-0.14l0 -0.06c0,-0.08 0.07,-0.14 0.14,-0.14l0.6 0c0.07,0 0.14,0.06 0.14,0.14zm-0.72 -1.68l0.04 0.04c0.06,0.06 0.06,0.14 0,0.2l-0.41 0.42c-0.06,0.05 -0.15,0.05 -0.2,0l-0.05 -0.04c-0.05,-0.06 -0.05,-0.15 0,-0.2l0.42 -0.42c0.06,-0.06 0.15,-0.06 0.2,0zm-1.69 -0.68l0.06 0c0.08,0 0.14,0.06 0.14,0.14l0 0.59c0,0.08 -0.06,0.14 -0.14,0.14l-0.06 0c-0.08,0 -0.14,-0.06 -0.14,-0.14l0 -0.59c0,-0.08 0.06,-0.14 0.14,-0.14zm0.02 1.42c0.53,0 0.96,0.43 0.96,0.96 0,0.53 -0.43,0.96 -0.96,0.96 -0.53,0 -0.96,-0.43 -0.96,-0.96 0,-0.53 0.43,-0.96 0.96,-0.96z"/>
  <rect class="fil1" width="5.3" height="5.3"/>
 </g>
</svg>
