<?xml version="1.0" encoding="UTF-8"?>
<!DOCTYPE svg PUBLIC "-//W3C//DTD SVG 1.1//EN" "http://www.w3.org/Graphics/SVG/1.1/DTD/svg11.dtd">
<!-- Creator: CorelDRAW (Evaluation Version) -->
<svg xmlns="http://www.w3.org/2000/svg" xml:space="preserve" width="100px" height="100px" version="1.1" style="shape-rendering:geometricPrecision; text-rendering:geometricPrecision; image-rendering:optimizeQuality; fill-rule:evenodd; clip-rule:evenodd"
viewBox="0 0 8.8 8.8"
 xmlns:xlink="http://www.w3.org/1999/xlink"
 xmlns:xodm="http://www.corel.com/coreldraw/odm/2003">
 <defs>
  <style type="text/css">
   <![CDATA[
    .fil0 {fill:none}
    .fil3 {fill:#4F7CB5}
    .fil2 {fill:#E7B056}
    .fil1 {fill:white}
   ]]>
  </style>
 </defs>
 <g id="Camada_x0020_1">
  <metadata id="CorelCorpID_0Corel-Layer"/>
  <rect class="fil0" width="8.8" height="8.8"/>
  <g id="_2728360908576">
   <g>
    <path class="fil1" d="M1.81 4.66c0,0 -0.05,-0.64 0.44,-1.02 0.28,-0.21 0.78,-0.35 1.08,-0.04 0.38,-0.94 1.55,-0.88 2.02,-0.63 1.11,0.58 0.83,1.75 0.83,1.75 0,0 0.99,0.1 1.01,1.13 0.02,1.03 -0.91,1.2 -0.91,1.2l-4.42 0c0,0 -0.93,-0.21 -0.91,-1.22 0.02,-1.02 0.86,-1.17 0.86,-1.17zm0.39 0.21c0,-0.01 -0.16,-0.61 0.25,-0.9 0.3,-0.2 0.71,-0.11 0.96,0.13 0.33,-0.83 1.04,-1.13 1.8,-0.72 1.11,0.59 0.49,1.71 0.49,1.71 0,0 1.04,-0.12 1.08,0.73 0.05,0.85 -0.75,0.87 -0.75,0.87l-3.96 0c0,0 -0.72,-0.15 -0.73,-0.93 -0.01,-0.77 0.86,-0.89 0.86,-0.89z"/>
    <path class="fil2" d="M4.22 1.07l0.04 -0.03c0.05,-0.05 0.13,-0.05 0.17,0l0.38 0.37c0.05,0.05 0.05,0.13 0,0.18l-0.04 0.03c-0.05,0.05 -0.13,0.05 -0.18,0l-0.37 -0.37c-0.05,-0.05 -0.05,-0.13 0,-0.18zm0.52 1.48c-0.09,0 -0.16,-0.07 -0.16,-0.15 0,-0.54 0.63,-1 1.15,-1 0.65,0 1.17,0.52 1.17,1.16 0,0.43 -0.23,0.8 -0.58,1.01 -0.02,0.02 -0.06,0.03 -0.09,0.03 -0.09,0 -0.16,-0.08 -0.16,-0.16 0,-0.07 0.04,-0.12 0.1,-0.15 0.25,-0.1 0.42,-0.47 0.42,-0.73 0,-0.47 -0.39,-0.85 -0.86,-0.85 -0.41,0 -0.76,0.3 -0.83,0.69 -0.01,0.09 -0.07,0.15 -0.16,0.15zm3.12 -0.01l0 0.06c0,0.07 -0.06,0.12 -0.13,0.12l-0.53 0c-0.07,0 -0.12,-0.05 -0.12,-0.12l0 -0.06c0,-0.07 0.05,-0.12 0.12,-0.12l0.53 0c0.07,0 0.13,0.05 0.13,0.12zm-0.61 1.51l-0.04 0.04c-0.05,0.05 -0.13,0.05 -0.18,0l-0.37 -0.38c-0.05,-0.04 -0.05,-0.12 0,-0.17l0.04 -0.04c0.05,-0.05 0.13,-0.05 0.17,0l0.38 0.37c0.05,0.05 0.05,0.13 0,0.18zm-0.03 -3l0.04 0.04c0.05,0.04 0.05,0.12 0,0.17l-0.37 0.38c-0.05,0.04 -0.13,0.04 -0.18,0l-0.04 -0.04c-0.05,-0.05 -0.05,-0.13 0,-0.18l0.37 -0.37c0.05,-0.05 0.13,-0.05 0.18,0zm-1.5 -0.61l0.05 0c0.07,0 0.12,0.06 0.12,0.12l0 0.53c0,0.07 -0.05,0.13 -0.12,0.13l-0.05 0c-0.07,0 -0.13,-0.06 -0.13,-0.13l0 -0.53c0,-0.06 0.06,-0.12 0.13,-0.12z"/>
   </g>
   <path class="fil3" d="M2.18 7.21l0 0c0.1,0.04 0.16,0.16 0.12,0.27l-0.29 0.75c-0.04,0.11 -0.17,0.16 -0.27,0.12l0 0c-0.11,-0.04 -0.17,-0.17 -0.13,-0.28l0.29 -0.74c0.04,-0.11 0.17,-0.16 0.28,-0.12zm3.63 0l0 0c0.11,0.04 0.16,0.16 0.12,0.27l-0.29 0.75c-0.04,0.11 -0.16,0.16 -0.27,0.12l0 0c-0.11,-0.04 -0.17,-0.17 -0.12,-0.28l0.28 -0.74c0.04,-0.11 0.17,-0.16 0.28,-0.12zm-0.71 0l0 0c0.11,0.04 0.17,0.16 0.13,0.27l-0.29 0.75c-0.04,0.11 -0.17,0.16 -0.28,0.12l0 0c-0.11,-0.04 -0.16,-0.17 -0.12,-0.28l0.29 -0.74c0.04,-0.11 0.17,-0.16 0.27,-0.12zm-0.82 0l0 0c0.11,0.04 0.17,0.16 0.13,0.27l-0.29 0.75c-0.04,0.11 -0.17,0.16 -0.28,0.12l0 0c-0.11,-0.04 -0.16,-0.17 -0.12,-0.28l0.29 -0.74c0.04,-0.11 0.16,-0.16 0.27,-0.12zm-0.7 0l0 0c0.11,0.04 0.16,0.16 0.12,0.27l-0.28 0.75c-0.05,0.11 -0.17,0.16 -0.28,0.12l0 0c-0.11,-0.04 -0.16,-0.17 -0.12,-0.28l0.28 -0.74c0.05,-0.11 0.17,-0.16 0.28,-0.12zm-0.7 0l0 0c0.11,0.04 0.16,0.16 0.12,0.27l-0.29 0.75c-0.04,0.11 -0.16,0.16 -0.27,0.12l0 0c-0.11,-0.04 -0.17,-0.17 -0.12,-0.28l0.28 -0.74c0.05,-0.11 0.17,-0.16 0.28,-0.12z"/>
  </g>
 </g>
</svg>
