<?xml version="1.0" encoding="UTF-8"?>
<!DOCTYPE svg PUBLIC "-//W3C//DTD SVG 1.1//EN" "http://www.w3.org/Graphics/SVG/1.1/DTD/svg11.dtd">
<!-- Creator: CorelDRAW (Evaluation Version) -->
<svg xmlns="http://www.w3.org/2000/svg" xml:space="preserve" width="100px" height="100px" version="1.1" style="shape-rendering:geometricPrecision; text-rendering:geometricPrecision; image-rendering:optimizeQuality; fill-rule:evenodd; clip-rule:evenodd"
viewBox="0 0 9.14 9.14"
 xmlns:xlink="http://www.w3.org/1999/xlink"
 xmlns:xodm="http://www.corel.com/coreldraw/odm/2003">
 <defs>
  <style type="text/css">
   <![CDATA[
    .fil3 {fill:none}
    .fil2 {fill:#4F7CB5}
    .fil0 {fill:#E7B056}
    .fil1 {fill:white}
   ]]>
  </style>
 </defs>
 <g id="Camada_x0020_1">
  <metadata id="CorelCorpID_0Corel-Layer"/>
  <g id="_2728440755648">
   <path class="fil0" d="M4.39 1.09l0.04 -0.04c0.04,-0.05 0.12,-0.05 0.17,0l0.37 0.37c0.05,0.05 0.05,0.13 0,0.18l-0.03 0.03c-0.05,0.05 -0.13,0.05 -0.18,0l-0.37 -0.37c-0.05,-0.05 -0.05,-0.12 0,-0.17zm0.52 1.46c-0.09,0 -0.16,-0.07 -0.16,-0.15 0,-0.54 0.63,-0.99 1.14,-0.99 0.64,0 1.16,0.52 1.16,1.16 0,0.42 -0.23,0.79 -0.57,0.99 -0.03,0.02 -0.06,0.04 -0.1,0.04 -0.08,0 -0.15,-0.08 -0.15,-0.16 0,-0.08 0.04,-0.12 0.09,-0.15 0.25,-0.11 0.42,-0.46 0.42,-0.72 0,-0.47 -0.38,-0.85 -0.85,-0.85 -0.41,0 -0.75,0.29 -0.83,0.68 -0.01,0.09 -0.06,0.15 -0.15,0.15zm3.09 0l0 0.05c0,0.07 -0.05,0.12 -0.12,0.12l-0.53 0c-0.06,0 -0.12,-0.05 -0.12,-0.12l0 -0.05c0,-0.07 0.06,-0.13 0.12,-0.13l0.53 0c0.07,0 0.12,0.06 0.12,0.13zm-0.6 1.49l-0.04 0.04c-0.05,0.05 -0.13,0.05 -0.18,0l-0.37 -0.37c-0.04,-0.05 -0.04,-0.13 0,-0.18l0.04 -0.03c0.05,-0.05 0.13,-0.05 0.18,0l0.37 0.37c0.05,0.05 0.05,0.13 0,0.17zm-0.03 -2.98l0.04 0.04c0.05,0.05 0.05,0.13 0,0.17l-0.37 0.37c-0.05,0.05 -0.13,0.05 -0.18,0l-0.03 -0.03c-0.05,-0.05 -0.05,-0.13 0,-0.18l0.37 -0.37c0.04,-0.05 0.12,-0.05 0.17,0zm-1.5 -0.6l0.06 0c0.07,0 0.12,0.05 0.12,0.12l0 0.53c0,0.06 -0.05,0.12 -0.12,0.12l-0.06 0c-0.06,0 -0.12,-0.06 -0.12,-0.12l0 -0.53c0,-0.07 0.06,-0.12 0.12,-0.12z"/>
   <g>
    <path class="fil1" d="M1.99 4.73c0,0 -0.05,-0.62 0.44,-0.98 0.28,-0.2 0.78,-0.34 1.08,-0.04 0.37,-0.91 1.54,-0.84 2.01,-0.61 1.1,0.56 0.81,1.69 0.81,1.69 0,0 1,0.1 1.02,1.08 0.01,0.99 -0.91,1.16 -0.91,1.16 -0.33,0 -0.67,0 -1,0 -0.1,0 -0.18,-0.08 -0.18,-0.18 0,-0.09 0.08,-0.17 0.18,-0.17 0.25,0 0.5,0 0.74,0 0,0 0.8,-0.02 0.76,-0.84 -0.05,-0.82 -1.08,-0.7 -1.08,-0.7 0,0 0.62,-1.07 -0.49,-1.65 -0.76,-0.39 -1.45,-0.1 -1.78,0.7 -0.25,-0.23 -0.66,-0.32 -0.96,-0.12 -0.4,0.27 -0.25,0.85 -0.25,0.86 0,0 -0.86,0.11 -0.85,0.86 0.01,0.74 0.73,0.89 0.73,0.89 0.27,0 0.54,0 0.81,0 0.1,0 0.17,0.08 0.17,0.17 0,0.1 -0.07,0.18 -0.17,0.18 -0.34,0 -0.69,0 -1.03,0 0,0 -0.92,-0.21 -0.9,-1.18 0.02,-0.98 0.85,-1.12 0.85,-1.12z"/>
    <path class="fil0" d="M5.06 6.84c0,0.07 -0.04,0.12 -0.08,0.18l-0.99 1.58c-0.05,0.08 -0.17,0.11 -0.25,0.05l0 0c-0.09,-0.05 -0.11,-0.16 -0.06,-0.25l0.85 -1.35 -0.91 0c-0.1,0 -0.18,-0.08 -0.18,-0.18l0 0c0,-0.05 0.01,-0.08 0.04,-0.12l0.87 -1.39c0.06,-0.09 0.17,-0.12 0.26,-0.06l0 0c0.08,0.05 0.11,0.17 0.06,0.25l-0.71 1.13 0.84 0c0.12,0 0.26,0.03 0.26,0.16z"/>
    <rect class="fil2" transform="matrix(0.197209 0.0762104 -0.0245331 0.0634845 2.16248 7.13891)" width="1.74" height="15.51" rx="0.87" ry="0.87"/>
    <rect class="fil2" transform="matrix(0.197209 0.0762104 -0.0245331 0.0634845 2.76958 7.13891)" width="1.74" height="15.51" rx="0.87" ry="0.87"/>
    <rect class="fil2" transform="matrix(0.197209 0.0762104 -0.0245331 0.0634845 5.65847 7.13891)" width="1.74" height="15.51" rx="0.87" ry="0.87"/>
    <rect class="fil2" transform="matrix(0.197209 0.0762104 -0.0245331 0.0634845 6.26557 7.13891)" width="1.74" height="15.51" rx="0.87" ry="0.87"/>
   </g>
  </g>
  <rect class="fil3" width="9.14" height="9.14"/>
 </g>
</svg>
