<?xml version="1.0" encoding="UTF-8"?>
<!DOCTYPE svg PUBLIC "-//W3C//DTD SVG 1.1//EN" "http://www.w3.org/Graphics/SVG/1.1/DTD/svg11.dtd">
<!-- Creator: CorelDRAW (Evaluation Version) -->
<svg xmlns="http://www.w3.org/2000/svg" xml:space="preserve" width="100px" height="100px" version="1.1" style="shape-rendering:geometricPrecision; text-rendering:geometricPrecision; image-rendering:optimizeQuality; fill-rule:evenodd; clip-rule:evenodd"
viewBox="0 0 56 56"
 xmlns:xlink="http://www.w3.org/1999/xlink"
 xmlns:xodm="http://www.corel.com/coreldraw/odm/2003">
 <defs>
  <style type="text/css">
   <![CDATA[
    .fil1 {fill:none}
    .fil0 {fill:white;fill-rule:nonzero}
   ]]>
  </style>
 </defs>
 <g id="Camada_x0020_1">
  <metadata id="CorelCorpID_0Corel-Layer"/>
  <path class="fil0" d="M10 24c0,-1 1,-2 1,-4 0,0 0,0 0,1 1,-2 2,-3 3,-5 0,0 0,0 0,0 1,-1 2,-3 4,-4 0,0 0,0 0,0 1,-1 3,-2 5,-3 0,0 0,0 -1,0 2,-1 3,-1 5,-1 0,0 0,0 -1,0 2,0 4,0 5,0 0,0 0,0 -1,0 2,0 4,1 5,1 0,0 0,0 -1,0 2,1 3,2 5,3 0,0 0,0 0,0 1,1 3,2 4,4 0,0 0,0 0,0 1,1 1,2 2,3 -1,0 -2,-1 -3,-1 0,0 -1,0 -1,0 -1,0 -1,0 -2,0 0,0 -1,1 -1,1 0,1 0,1 0,2 0,1 1,1 1,1 2,1 5,2 7,3 0,0 1,0 1,0 1,0 1,0 2,0 1,0 1,-1 1,-1 1,-2 2,-5 3,-7 0,0 0,-1 0,-1 0,-1 0,-1 0,-2 0,0 -1,-1 -1,-1 -1,0 -1,0 -2,0 -1,0 -1,1 -1,1l0 0c0,1 -1,2 -1,2 -1,-2 -2,-3 -3,-4 -3,-3 -6,-5 -10,-6 -4,-1 -8,-1 -12,0 -4,1 -8,3 -11,6 -3,3 -5,6 -6,10 0,0 0,1 0,1 0,1 0,1 0,2 0,0 1,1 1,1 1,0 1,0 2,0 1,0 1,-1 1,-1l0 0zm36 7c0,1 -1,2 -1,4 0,0 0,0 0,-1 -1,2 -2,3 -3,5 0,0 0,0 0,0 -1,1 -2,3 -4,4 0,0 0,0 0,0 -1,1 -3,2 -5,3 0,0 0,0 1,0 -2,1 -3,1 -5,1 0,0 0,0 1,0 -2,0 -4,0 -5,0 0,0 0,0 1,0 -2,0 -4,-1 -5,-1 0,0 0,0 1,0 -2,-1 -3,-2 -5,-3 0,0 0,0 0,0 -1,-1 -3,-2 -4,-4 0,0 0,0 0,0 -1,-1 -1,-2 -2,-3 1,0 2,1 3,1 0,0 1,0 1,0 1,0 1,0 2,0 0,0 1,-1 1,-1 0,-1 0,-1 0,-2 0,-1 -1,-1 -1,-1 -2,-1 -5,-2 -7,-3 0,0 -1,0 -1,0 -1,0 -1,0 -2,0 -1,0 -1,1 -1,1 -1,2 -2,5 -3,7 0,0 0,1 0,1 0,1 0,1 0,2 0,0 1,1 1,1 1,0 1,0 2,0 1,0 1,-1 1,-1l0 0c0,-1 1,-2 1,-2 1,2 2,3 3,4 3,3 6,5 10,6 4,1 8,1 12,0 4,-1 8,-3 11,-6 3,-3 5,-6 6,-10 0,0 0,-1 0,-1 0,-1 0,-1 0,-2 0,0 -1,-1 -1,-1 -1,0 -1,0 -2,0 -1,0 -1,1 -1,1l0 0z"/>
  <rect class="fil1" width="56" height="56"/>
 </g>
</svg>
