<?xml version="1.0" encoding="UTF-8"?>
<!DOCTYPE svg PUBLIC "-//W3C//DTD SVG 1.1//EN" "http://www.w3.org/Graphics/SVG/1.1/DTD/svg11.dtd">
<!-- Creator: CorelDRAW (Evaluation Version) -->
<svg xmlns="http://www.w3.org/2000/svg" xml:space="preserve" width="100px" height="100px" version="1.1" style="shape-rendering:geometricPrecision; text-rendering:geometricPrecision; image-rendering:optimizeQuality; fill-rule:evenodd; clip-rule:evenodd"
viewBox="0 0 5.3 5.3"
 xmlns:xlink="http://www.w3.org/1999/xlink"
 xmlns:xodm="http://www.corel.com/coreldraw/odm/2003">
 <defs>
  <style type="text/css">
   <![CDATA[
    .fil1 {fill:none}
    .fil0 {fill:white}
   ]]>
  </style>
 </defs>
 <g id="Camada_x0020_1">
  <metadata id="CorelCorpID_0Corel-Layer"/>
  <path class="fil0" d="M0.49 3.61c0,0 0.59,-0.39 1.12,-0.34 0.27,0.03 0.57,0.17 0.86,0.35 0.3,0.18 0.59,0.4 0.92,0.42 0.46,0.04 0.89,0.06 1.55,-0.37 0.2,-0.12 0.11,-0.5 -0.34,-0.17 -0.24,0.17 -0.73,0.29 -1.02,0.26 -0.89,-0.07 -1.15,-0.71 -1.93,-0.77 -0.32,-0.03 -0.57,0.03 -0.86,0.15 -0.1,0.04 -0.62,0.23 -0.51,0.42 0.08,0.13 0.21,0.05 0.21,0.05zm0 -1.74c0,0 0.59,-0.39 1.12,-0.34 0.27,0.03 0.57,0.17 0.86,0.35 0.3,0.18 0.59,0.4 0.92,0.42 0.46,0.04 0.89,0.06 1.55,-0.37 0.2,-0.12 0.11,-0.49 -0.34,-0.17 -0.24,0.18 -0.73,0.29 -1.02,0.27 -0.89,-0.08 -1.15,-0.72 -1.93,-0.78 -0.32,-0.03 -0.57,0.03 -0.86,0.15 -0.1,0.04 -0.62,0.23 -0.51,0.42 0.08,0.13 0.21,0.05 0.21,0.05zm0 0.86c0,0 0.59,-0.4 1.12,-0.34 0.27,0.03 0.57,0.17 0.86,0.35 0.3,0.18 0.59,0.39 0.92,0.42 0.46,0.03 0.89,0.05 1.55,-0.37 0.2,-0.12 0.11,-0.5 -0.34,-0.18 -0.24,0.18 -0.73,0.29 -1.02,0.27 -0.89,-0.07 -1.15,-0.71 -1.93,-0.77 -0.32,-0.03 -0.57,0.02 -0.86,0.14 -0.1,0.05 -0.62,0.23 -0.51,0.43 0.08,0.12 0.21,0.05 0.21,0.05z"/>
  <rect class="fil1" width="5.3" height="5.3"/>
 </g>
</svg>
