<?xml version="1.0" encoding="UTF-8"?>
<!DOCTYPE svg PUBLIC "-//W3C//DTD SVG 1.1//EN" "http://www.w3.org/Graphics/SVG/1.1/DTD/svg11.dtd">
<!-- Creator: CorelDRAW (Evaluation Version) -->
<svg xmlns="http://www.w3.org/2000/svg" xml:space="preserve" width="30px" height="30px" version="1.1" style="shape-rendering:geometricPrecision; text-rendering:geometricPrecision; image-rendering:optimizeQuality; fill-rule:evenodd; clip-rule:evenodd"
viewBox="0 0 1.48 1.48"
 xmlns:xlink="http://www.w3.org/1999/xlink"
 xmlns:xodm="http://www.corel.com/coreldraw/odm/2003">
 <defs>
  <style type="text/css">
   <![CDATA[
    .fil0 {fill:none}
    .fil1 {fill:white}
   ]]>
  </style>
 </defs>
 <g id="Camada_x0020_1">
  <metadata id="CorelCorpID_0Corel-Layer"/>
  <rect class="fil0" width="1.48" height="1.48"/>
  <path class="fil1" d="M0.26 0.62l0.47 0 0.01 0 0 0c0.07,0 0.13,-0.06 0.13,-0.13 0,-0.08 -0.06,-0.14 -0.13,-0.14 -0.07,0 -0.13,0.06 -0.13,0.13l0 0.01c-0.01,0.01 -0.02,0.02 -0.03,0.02l0 0c-0.01,0 -0.02,-0.01 -0.02,-0.02l0 0 0 0 0 0c0,-0.01 0,-0.01 0,-0.02l0 0c0.01,-0.09 0.08,-0.16 0.18,-0.16 0.1,0 0.18,0.08 0.18,0.18 0,0.1 -0.08,0.18 -0.18,0.18 0,0 0,0 0,0l-0.48 0c-0.01,0 -0.02,-0.01 -0.02,-0.02l0 0c0,-0.02 0.01,-0.03 0.02,-0.03zm0.36 0.24l0.44 0 0 0 0 0c0.08,0 0.14,0.06 0.14,0.13 0,0.07 -0.06,0.13 -0.14,0.13 -0.07,0 -0.12,-0.05 -0.13,-0.12l0 -0.01c0,-0.01 -0.01,-0.02 -0.03,-0.02l0 0c-0.01,0 -0.02,0.01 -0.02,0.02l0 0 0 0 0 0c0,0.01 0,0.01 0,0.02l0 0c0.01,0.09 0.09,0.16 0.18,0.16 0.1,0 0.18,-0.08 0.18,-0.18 0,-0.1 -0.08,-0.18 -0.18,-0.18 0,0 0,0 0,0l-0.44 0c-0.01,0 -0.03,0.01 -0.03,0.02l0 0c0,0.02 0.02,0.03 0.03,0.03zm-0.47 -0.15l1.02 0 0.01 0 0 0c0.07,0 0.13,-0.06 0.13,-0.13 0,-0.08 -0.06,-0.14 -0.13,-0.14 -0.07,0 -0.13,0.06 -0.14,0.12l0 0.02c0,0.01 -0.01,0.02 -0.02,0.02l0 0c-0.01,0 -0.02,-0.01 -0.02,-0.02l0 0 0 -0.01 0 0c0,0 0,0 0,-0.01l0 0c0,-0.09 0.08,-0.16 0.18,-0.16 0.1,0 0.18,0.08 0.18,0.18 0,0.1 -0.08,0.18 -0.18,0.18 0,0 0,0 0,0l-1.03 0c-0.02,0 -0.03,-0.01 -0.03,-0.03l0 0c0,-0.01 0.01,-0.02 0.03,-0.02z"/>
 </g>
</svg>
